<svg width="320" height="52" viewBox="0 0 320 52" fill="none" xmlns="http://www.w3.org/2000/svg">
<path d="M26.888 23.5441L15.1612 12.8148C14.3402 12.0876 13.834 11.0723 13.834 9.91979C13.834 7.68338 15.7633 5.87229 18.1306 5.87229H31.1025V0.274406H11.2752C5.11761 0.274406 0 4.40422 0 10.8802C0 13.638 1.12204 16.1625 2.96931 18.0559L16.7896 31.0491C16.7896 31.0491 19.1158 32.723 18.3084 35.4945C17.5011 38.266 13.9708 38.266 12.6572 38.266H0V49.5989H19.1842C26.9427 49.5989 33.2371 43.6855 33.2371 36.3863V36.2765C33.456 30.8296 30.5141 26.9055 26.888 23.5578" fill="white"/>
<path d="M104.323 23.5441L92.6095 12.8148C91.7885 12.0876 91.2822 11.0723 91.2822 9.91979C91.2822 7.68338 93.2116 5.87229 95.5788 5.87229H108.551V0.274406H88.7097C82.5659 0.274406 77.4483 4.40422 77.4483 10.8802C77.4483 13.638 78.5703 16.1625 80.4176 18.0559L94.2242 31.0491C94.2242 31.0491 96.5503 32.723 95.743 35.4945C94.9357 38.266 91.4054 38.266 90.0781 38.266H77.4483V49.5989H96.6324C104.391 49.5989 110.685 43.6855 110.685 36.3863V36.2765C110.904 30.8296 107.962 26.9055 104.336 23.5578" fill="white"/>
<path d="M55.1579 38.2522H48.8499V25.1356H54.9116C55.7053 25.1356 61.8355 25.1356 62.287 31.2C62.6154 35.5356 59.3724 38.2522 55.1579 38.2522ZM48.8499 5.95462H54.1043C54.898 5.95462 60.3987 5.95462 60.8503 11.2918C61.1787 15.1198 58.5651 17.5071 54.3506 17.5071H48.8499V5.95462ZM74.7663 35.2612C74.7663 29.334 71.4549 23.6401 64.8048 21.3763C69.8266 19.8396 72.4401 16.1488 72.4401 10.9763C72.4401 7.50501 70.7844 4.59631 68.1983 2.7029C64.4764 0.137203 58.8935 0.343008 58.8935 0.343008H37V49.5852H60.2892C62.2596 49.4892 66.4057 48.9541 69.7582 46.2237C72.7412 43.6032 74.7526 39.6929 74.7526 35.2749" fill="white"/>
<path d="M167.239 1.16623V50.6966H164.393L135.274 19.524V49.7499H126.257V0.315567H129.432L158.304 31.2412V1.16623H167.253H167.239Z" fill="white"/>
<path d="M208.973 9.22005H185.821V20.3061H204.034V27.866H185.821V41.6274H210.889V49.7499H177.242V1.16623H208.973V9.22005Z" fill="white"/>
<path d="M283.507 1.16623L264.911 50.628H262.229L248.532 18.2755L234.917 50.628H232.098L213.503 1.16623H223.15L234 30.8021L246.959 0.274406H250.037L263.05 30.7884L274.148 1.16623H283.507Z" fill="white"/>
<path d="M319.371 9.13773L313.063 14.0222C311.49 11.7583 307.672 8.20475 302.527 8.20475C298.012 8.20475 295.713 10.9625 295.672 13.1715C295.603 16.3958 297.765 17.6855 298.846 18.3852C300.42 19.4142 305.113 21.5546 307.645 22.666C311.75 24.477 314.815 26.6037 316.84 28.7578C319.413 31.4881 320.316 35.6728 319.905 39.0069C319.057 45.6749 312.899 52 302.773 52C294.755 52 288.187 48.419 283.384 40.667L289.815 35.8786C294.468 42.1351 298.272 43.7266 302.691 43.7266C308.329 43.7266 310.778 39.8575 310.778 37.429C310.778 34.7673 308.562 33.0385 306.523 31.886C304.484 30.7335 300.05 28.7852 297.806 27.6053C294.235 25.7256 286.545 22.6522 286.545 14.0633C286.545 7.39525 291.211 0 302.527 0C313.036 0 317.497 5.96834 319.371 9.15145V9.13773Z" fill="white"/>
</svg>
